<?xml version="1.0" encoding="UTF-8"?>
<svg width="20px" height="30px" viewBox="0 0 23 38" version="1.1" xmlns="http://www.w3.org/2000/svg" xmlns:xlink="http://www.w3.org/1999/xlink">
    <!-- Generator: Sketch 52.4 (67378) - http://www.bohemiancoding.com/sketch -->
    <title>Combined Shape</title>
    <desc>Created with Sketch.</desc>
    <g id="Page-1" stroke="none" stroke-width="1" fill="none" fill-rule="evenodd">
        <g id="logo" transform="translate(-139.000000, -131.000000)" fill="#000000" fill-rule="nonzero">
            <path d="M141,131 L160,131 C161.104569,131 162,131.895431 162,133 L162,167 C162,168.104569 161.104569,169 160,169 L141,169 C139.895431,169 139,168.104569 139,167 L139,133 C139,131.895431 139.895431,131 141,131 Z M142.867257,136.6 L142.867257,140.6 L146.938053,140.6 L146.938053,136.6 L142.867257,136.6 Z M148.566372,136.6 L148.566372,140.6 L152.637168,140.6 L152.637168,136.6 L148.566372,136.6 Z M154.265487,136.6 L154.265487,140.6 L158.336283,140.6 L158.336283,136.6 L154.265487,136.6 Z M142.867257,142 L142.867257,146 L146.938053,146 L146.938053,142 L142.867257,142 Z M148.566372,142 L148.566372,146 L152.637168,146 L152.637168,142 L148.566372,142 Z M154.265487,142 L154.265487,146 L158.336283,146 L158.336283,142 L154.265487,142 Z M142.867257,147.4 L142.867257,151.4 L146.938053,151.4 L146.938053,147.4 L142.867257,147.4 Z M148.566372,147.4 L148.566372,151.4 L152.637168,151.4 L152.637168,147.4 L148.566372,147.4 Z M154.265487,147.4 L154.265487,151.4 L158.336283,151.4 L158.336283,147.4 L154.265487,147.4 Z M148.566372,161.8 L148.566372,168.8 L152.637168,168.8 L152.637168,161.8 L148.566372,161.8 Z M142.867257,152.8 L142.867257,156.8 L146.938053,156.8 L146.938053,152.8 L142.867257,152.8 Z M148.566372,152.8 L148.566372,156.8 L152.637168,156.8 L152.637168,152.8 L148.566372,152.8 Z M154.265487,152.8 L154.265487,156.8 L158.336283,156.8 L158.336283,152.8 L154.265487,152.8 Z" id="Combined-Shape"></path>
        </g>
    </g>
</svg>