<?xml version="1.0" encoding="UTF-8"?>
<svg width="47px" height="56px" viewBox="0 0 47 56" version="1.1" xmlns="http://www.w3.org/2000/svg" xmlns:xlink="http://www.w3.org/1999/xlink">
    <!-- Generator: Sketch 52.4 (67378) - http://www.bohemiancoding.com/sketch -->
    <title>Group 4</title>
    <desc>Created with Sketch.</desc>
    <g id="Page-1" stroke="none" stroke-width="1" fill="none" fill-rule="evenodd">
        <g id="logo" transform="translate(-91.000000, -73.000000)" fill="#000000" fill-rule="nonzero">
            <g id="Group-4" transform="translate(91.000000, 73.000000)">
                <path d="M2,18 L21,18 C22.1045695,18 23,18.8954305 23,20 L23,54 C23,55.1045695 22.1045695,56 21,56 L2,56 C0.8954305,56 -3.41744293e-15,55.1045695 -3.55271368e-15,54 L-3.55271368e-15,20 C-3.68798443e-15,18.8954305 0.8954305,18 2,18 Z M3.86725664,23.6 L3.86725664,27.6 L7.9380531,27.6 L7.9380531,23.6 L3.86725664,23.6 Z M9.56637168,23.6 L9.56637168,27.6 L13.6371681,27.6 L13.6371681,23.6 L9.56637168,23.6 Z M15.2654867,23.6 L15.2654867,27.6 L19.3362832,27.6 L19.3362832,23.6 L15.2654867,23.6 Z M3.86725664,29 L3.86725664,33 L7.9380531,33 L7.9380531,29 L3.86725664,29 Z M9.56637168,29 L9.56637168,33 L13.6371681,33 L13.6371681,29 L9.56637168,29 Z M15.2654867,29 L15.2654867,33 L19.3362832,33 L19.3362832,29 L15.2654867,29 Z M3.86725664,34.4 L3.86725664,38.4 L7.9380531,38.4 L7.9380531,34.4 L3.86725664,34.4 Z M9.56637168,34.4 L9.56637168,38.4 L13.6371681,38.4 L13.6371681,34.4 L9.56637168,34.4 Z M15.2654867,34.4 L15.2654867,38.4 L19.3362832,38.4 L19.3362832,34.4 L15.2654867,34.4 Z M9.56637168,48.8 L9.56637168,55.8 L13.6371681,55.8 L13.6371681,48.8 L9.56637168,48.8 Z M3.86725664,39.8 L3.86725664,43.8 L7.9380531,43.8 L7.9380531,39.8 L3.86725664,39.8 Z M9.56637168,39.8 L9.56637168,43.8 L13.6371681,43.8 L13.6371681,39.8 L9.56637168,39.8 Z M15.2654867,39.8 L15.2654867,43.8 L19.3362832,43.8 L19.3362832,39.8 L15.2654867,39.8 Z" id="Combined-Shape"></path>
                <path d="M26,0 L45,0 C46.1045695,-2.02906125e-16 47,0.8954305 47,2 L47,54 C47,55.1045695 46.1045695,56 45,56 L26,56 C24.8954305,56 24,55.1045695 24,54 L24,2 C24,0.8954305 24.8954305,2.02906125e-16 26,0 Z M27,4 L27,8 L31.0707965,8 L31.0707965,4 L27,4 Z M33,4 L33,8 L37.0707965,8 L37.0707965,4 L33,4 Z M39,4 L39,8 L43.0707965,8 L43.0707965,4 L39,4 Z M27,11 L27,15 L31.0707965,15 L31.0707965,11 L27,11 Z M33,11 L33,15 L37.0707965,15 L37.0707965,11 L33,11 Z M39,11 L39,15 L43.0707965,15 L43.0707965,11 L39,11 Z M27,18 L27,22 L31.0707965,22 L31.0707965,18 L27,18 Z M33,18 L33,22 L37.0707965,22 L37.0707965,18 L33,18 Z M39,18 L39,22 L43.0707965,22 L43.0707965,18 L39,18 Z M27,25 L27,29 L31.0707965,29 L31.0707965,25 L27,25 Z M33,25 L33,29 L37.0707965,29 L37.0707965,25 L33,25 Z M39,25 L39,29 L43.0707965,29 L43.0707965,25 L39,25 Z M27,32 L27,36 L31.0707965,36 L31.0707965,32 L27,32 Z M33,32 L33,36 L37.0707965,36 L37.0707965,32 L33,32 Z M39,32 L39,36 L43.0707965,36 L43.0707965,32 L39,32 Z M33,47 L33,55 L38,55 L38,47 L33,47 Z" id="Combined-Shape"></path>
            </g>
        </g>
    </g>
</svg>