<?xml version="1.0" encoding="UTF-8"?>
<svg width="27px" height="30px" viewBox="0 0 27 30" version="1.1" xmlns="http://www.w3.org/2000/svg" xmlns:xlink="http://www.w3.org/1999/xlink">
    <!-- Generator: Sketch 52.4 (67378) - http://www.bohemiancoding.com/sketch -->
    <title>Combined Shape</title>
    <desc>Created with Sketch.</desc>
    <g id="Page-1" stroke="none" stroke-width="1" fill="none" fill-rule="evenodd">
        <g id="logo" transform="translate(-153.000000, -77.000000)" fill="#000000" fill-rule="nonzero">
            <path d="M155.131579,91.1176471 L166.5,77 L177.868421,91.1176471 L178,91.1176471 L178,91.2810458 L180,93.7647059 L178,93.7647059 L178,107 L155,107 L155,93.7647059 L153,93.7647059 L155,91.2810458 L155,91.1176471 L155.131579,91.1176471 Z M164,98 L164,106 L169,106 L169,98 L164,98 Z M158,93 L158,97 L163,97 L163,93 L158,93 Z M170,93 L170,97 L175,97 L175,93 L170,93 Z" id="Combined-Shape"></path>
        </g>
    </g>
</svg>